<svg width="144" height="144" viewBox="0 0 144 144" fill="none" xmlns="http://www.w3.org/2000/svg">
<g clip-path="url(#clip0_4621_2819)">
<g filter="url(#filter0_d_4621_2819)">
<path fill-rule="evenodd" clip-rule="evenodd" d="M17.5164 113.179C17.5491 114.874 18.859 116.564 21.4459 117.858L62.4777 138.374C67.7179 140.994 76.2139 140.994 81.454 138.374L122.486 117.858C125.275 116.463 126.58 114.608 126.4 112.781V86.5682H77.8598C74.1515 85.6618 69.7805 85.6618 66.0722 86.5682H17.5156V113.179H17.5164Z" fill="url(#paint0_linear_4621_2819)"/>
<path d="M63.4265 61.8079L22.3945 82.3239C17.6784 84.6817 17.6784 88.5049 22.3945 90.8631L63.4265 111.379C68.1425 113.737 75.7889 113.737 80.5052 111.379L121.537 90.8631C126.253 88.5049 126.253 84.6817 121.537 82.3239L80.5052 61.8079C75.7889 59.4498 68.1425 59.4498 63.4265 61.8079Z" fill="#2A2043" stroke="#2A2043" stroke-width="7.36672"/>
<g filter="url(#filter1_i_4621_2819)">
<path d="M66.4153 70.3675L40.7246 83.2129C37.4434 84.8534 37.4434 87.5133 40.7246 89.1538L66.4153 101.999C69.6962 103.64 75.0156 103.64 78.2965 101.999L103.987 89.1538C107.268 87.5133 107.268 84.8534 103.987 83.2129L78.2965 70.3675C75.0156 68.7271 69.6962 68.7271 66.4153 70.3675Z" fill="#261D3C"/>
</g>
<path d="M74.7828 79.5956C74.4887 79.4257 74.2157 79.3165 73.9637 79.2681C73.7255 79.2278 73.4246 79.2722 73.0605 79.4015C72.7103 79.5389 72.2135 79.7934 71.5693 80.1655L69.5109 81.3538C68.979 81.6611 68.4326 81.8794 67.8728 82.0087C67.3406 82.138 66.8504 82.2106 66.4022 82.227C65.9544 82.2432 65.5763 82.2351 65.2681 82.2026C65.3104 82.3564 65.3171 82.5623 65.2891 82.8212C65.2891 83.0798 65.2053 83.3546 65.0371 83.6457C64.8831 83.9286 64.6031 84.1875 64.197 84.4219L61.6767 85.8769C61.0466 86.2406 60.6126 86.5237 60.3744 86.7259C60.1503 86.9358 60.0734 87.1098 60.1434 87.2472C60.2272 87.3926 60.4165 87.5504 60.7105 87.7201L61.4875 88.1688L58.9252 89.6482L57.2657 88.6903C56.8741 88.464 56.4887 88.2336 56.1109 87.9991C55.7465 87.7728 55.4738 87.5262 55.2915 87.2593C55.0957 87.0006 55.0815 86.7095 55.2497 86.3863C55.4176 86.079 55.8375 85.7314 56.5097 85.3435L59.9755 83.3425C60.6054 82.9787 61.0256 82.5747 61.2355 82.13C61.4596 81.6773 61.2917 81.281 60.7315 80.9414L63.1677 79.5348C63.7558 79.8582 64.4349 79.9593 65.2053 79.8381C65.9754 79.7168 66.6825 79.4703 67.3264 79.0982L70.6451 77.1824C71.3173 76.7942 71.9192 76.5517 72.4514 76.4547C72.9833 76.3579 73.4735 76.3579 73.9216 76.4547C74.3836 76.5598 74.8179 76.7216 75.224 76.9399C75.6439 77.1499 76.0569 77.3722 76.463 77.6067L78.1221 78.5648L75.5598 80.0443L74.7828 79.5956ZM83.2379 92.7958C81.8097 93.6203 80.2974 94.2914 78.701 94.8089C77.119 95.3342 75.5788 95.7224 74.0806 95.973C72.5683 96.2316 71.196 96.369 69.9637 96.3851L68.6616 94.3481C70.44 94.2752 72.316 93.9844 74.2906 93.4749C76.2786 92.9576 78.239 92.1412 80.1715 91.0254C82.1037 89.9097 83.5109 88.7819 84.393 87.642C85.2893 86.494 85.7933 85.4109 85.9053 84.3922L89.4549 85.1318C89.427 85.8432 89.1888 86.6355 88.741 87.5087C88.2928 88.3816 87.6137 89.275 86.7034 90.1888C85.8212 91.1023 84.6661 91.9712 83.2379 92.7958Z" fill="#5C566D"/>
<g filter="url(#filter2_i_4621_2819)">
<path d="M66.4153 70.3673L40.7246 83.2127C37.4434 84.8531 37.4434 87.5131 40.7246 89.1535L66.4153 101.999C69.6962 103.639 75.0156 103.639 78.2965 101.999L103.987 89.1535C107.268 87.5131 107.268 84.8531 103.987 83.2127L78.2965 70.3673C75.0156 68.7269 69.6962 68.7269 66.4153 70.3673Z" fill="url(#paint1_linear_4621_2819)"/>
</g>
<path fill-rule="evenodd" clip-rule="evenodd" d="M106.388 20.8864C106.476 19.9316 105.932 18.3511 103.047 17.1204L79.4965 5.50465C77.145 4.01952 70.936 1.94036 64.9105 5.50465L41.679 17.1204C40.565 17.5802 38.3056 18.9133 38.1783 20.568V82.6254H38.187V86.1735C38.0986 86.81 38.6432 88.3906 41.5283 89.6209L65.0784 101.237C67.4299 102.722 73.6392 104.801 79.6644 101.237L102.896 89.6209C104.01 89.1613 106.27 87.8281 106.397 86.1735V82.0361H106.388V20.8864Z" fill="url(#paint2_linear_4621_2819)"/>
<path d="M74.7828 79.5956C74.4887 79.4257 74.2157 79.3165 73.9637 79.2681C73.7255 79.2278 73.4246 79.2722 73.0605 79.4015C72.7103 79.5389 72.2135 79.7934 71.5693 80.1655L69.5109 81.3538C68.979 81.6611 68.4326 81.8794 67.8728 82.0087C67.3406 82.138 66.8504 82.2106 66.4022 82.227C65.9544 82.2432 65.5763 82.2351 65.2681 82.2026C65.3104 82.3564 65.3171 82.5623 65.2891 82.8212C65.2891 83.0798 65.2053 83.3546 65.0371 83.6457C64.8831 83.9286 64.6031 84.1875 64.197 84.4219L61.6767 85.8769C61.0466 86.2406 60.6126 86.5237 60.3744 86.7259C60.1503 86.9358 60.0734 87.1098 60.1434 87.2472C60.2272 87.3926 60.4165 87.5504 60.7105 87.7201L61.4875 88.1688L58.9252 89.6482L57.2657 88.6903C56.8741 88.464 56.4887 88.2336 56.1109 87.9991C55.7465 87.7728 55.4738 87.5262 55.2915 87.2593C55.0957 87.0006 55.0815 86.7095 55.2497 86.3863C55.4176 86.079 55.8375 85.7314 56.5097 85.3435L59.9755 83.3425C60.6054 82.9787 61.0256 82.5747 61.2355 82.13C61.4596 81.6773 61.2917 81.281 60.7315 80.9414L63.1677 79.5348C63.7558 79.8582 64.4349 79.9593 65.2053 79.8381C65.9754 79.7168 66.6825 79.4703 67.3264 79.0982L70.6451 77.1824C71.3173 76.7942 71.9192 76.5517 72.4514 76.4547C72.9833 76.3579 73.4735 76.3579 73.9216 76.4547C74.3836 76.5598 74.8179 76.7216 75.224 76.9399C75.6439 77.1499 76.0569 77.3722 76.463 77.6067L78.1221 78.5648L75.5598 80.0443L74.7828 79.5956ZM83.2379 92.7958C81.8097 93.6203 80.2974 94.2914 78.701 94.8089C77.119 95.3342 75.5788 95.7224 74.0806 95.973C72.5683 96.2316 71.196 96.369 69.9637 96.3851L68.6616 94.3481C70.44 94.2752 72.316 93.9844 74.2906 93.4749C76.2786 92.9576 78.239 92.1412 80.1715 91.0254C82.1037 89.9097 83.5109 88.7819 84.393 87.642C85.2893 86.494 85.7933 85.4109 85.9053 84.3922L89.4549 85.1318C89.427 85.8432 89.1888 86.6355 88.741 87.5087C88.2928 88.3816 87.6137 89.275 86.7034 90.1888C85.8212 91.1023 84.6661 91.9712 83.2379 92.7958Z" fill="#FAFAFA"/>
</g>
</g>
<defs>
<filter id="filter0_d_4621_2819" x="11.1738" y="3.53662" width="121.583" height="144.802" filterUnits="userSpaceOnUse" color-interpolation-filters="sRGB">
<feFlood flood-opacity="0" result="BackgroundImageFix"/>
<feColorMatrix in="SourceAlpha" type="matrix" values="0 0 0 0 0 0 0 0 0 0 0 0 0 0 0 0 0 0 127 0" result="hardAlpha"/>
<feOffset dy="4"/>
<feGaussianBlur stdDeviation="2"/>
<feComposite in2="hardAlpha" operator="out"/>
<feColorMatrix type="matrix" values="0 0 0 0 0 0 0 0 0 0 0 0 0 0 0 0 0 0 0.25 0"/>
<feBlend mode="normal" in2="BackgroundImageFix" result="effect1_dropShadow_4621_2819"/>
<feBlend mode="normal" in="SourceGraphic" in2="effect1_dropShadow_4621_2819" result="shape"/>
</filter>
<filter id="filter1_i_4621_2819" x="38.2637" y="69.1372" width="68.1841" height="36.4315" filterUnits="userSpaceOnUse" color-interpolation-filters="sRGB">
<feFlood flood-opacity="0" result="BackgroundImageFix"/>
<feBlend mode="normal" in="SourceGraphic" in2="BackgroundImageFix" result="shape"/>
<feColorMatrix in="SourceAlpha" type="matrix" values="0 0 0 0 0 0 0 0 0 0 0 0 0 0 0 0 0 0 127 0" result="hardAlpha"/>
<feOffset dy="9.20836"/>
<feGaussianBlur stdDeviation="1.16959"/>
<feComposite in2="hardAlpha" operator="arithmetic" k2="-1" k3="1"/>
<feColorMatrix type="matrix" values="0 0 0 0 1 0 0 0 0 1 0 0 0 0 1 0 0 0 0.25 0"/>
<feBlend mode="normal" in2="shape" result="effect1_innerShadow_4621_2819"/>
</filter>
<filter id="filter2_i_4621_2819" x="38.2637" y="69.137" width="68.1841" height="36.4315" filterUnits="userSpaceOnUse" color-interpolation-filters="sRGB">
<feFlood flood-opacity="0" result="BackgroundImageFix"/>
<feBlend mode="normal" in="SourceGraphic" in2="BackgroundImageFix" result="shape"/>
<feColorMatrix in="SourceAlpha" type="matrix" values="0 0 0 0 0 0 0 0 0 0 0 0 0 0 0 0 0 0 127 0" result="hardAlpha"/>
<feOffset dy="9.20836"/>
<feGaussianBlur stdDeviation="1.16959"/>
<feComposite in2="hardAlpha" operator="arithmetic" k2="-1" k3="1"/>
<feColorMatrix type="matrix" values="0 0 0 0 1 0 0 0 0 1 0 0 0 0 1 0 0 0 0.25 0"/>
<feBlend mode="normal" in2="shape" result="effect1_innerShadow_4621_2819"/>
</filter>
<linearGradient id="paint0_linear_4621_2819" x1="17.5156" y1="85.8948" x2="126.484" y2="140.295" gradientUnits="userSpaceOnUse">
<stop stop-color="#2A2042"/>
<stop offset="1" stop-color="#120B23" stop-opacity="0"/>
</linearGradient>
<linearGradient id="paint1_linear_4621_2819" x1="72.3363" y1="104.949" x2="89.1394" y2="82.5454" gradientUnits="userSpaceOnUse">
<stop stop-color="#6513F2"/>
<stop offset="1" stop-color="#02D1FF"/>
</linearGradient>
<linearGradient id="paint2_linear_4621_2819" x1="72.3363" y1="18.9183" x2="72.2876" y2="103.205" gradientUnits="userSpaceOnUse">
<stop stop-color="#02D1FF" stop-opacity="0"/>
<stop offset="1" stop-color="#02D1FF" stop-opacity="0.15"/>
</linearGradient>
<clipPath id="clip0_4621_2819">
<rect width="144" height="144" fill="white"/>
</clipPath>
</defs>
</svg>
